<svg width="479" height="310" viewBox="0 0 479 310" fill="none" xmlns="http://www.w3.org/2000/svg">
<g filter="url(#filter0_i_11746_74)">
<path d="M27.648 246.17C27.648 248.901 27.9467 250.906 28.544 252.186C29.1413 253.381 30.2507 254.234 31.872 254.746C33.5787 255.258 36.2667 255.514 39.936 255.514C40.192 255.514 40.32 255.77 40.32 256.282C40.32 256.794 40.192 257.05 39.936 257.05C36.4373 257.05 33.7067 257.008 31.744 256.922L20.608 256.794L11.264 256.922C9.55733 257.008 7.25333 257.05 4.352 257.05C4.096 257.05 3.968 256.794 3.968 256.282C3.968 255.77 4.096 255.514 4.352 255.514C7.08267 255.514 9.04533 255.301 10.24 254.874C11.52 254.448 12.3733 253.637 12.8 252.442C13.2267 251.162 13.44 249.242 13.44 246.682V187.418C13.44 184.858 13.2267 182.981 12.8 181.786C12.3733 180.592 11.52 179.781 10.24 179.354C8.96 178.842 6.99733 178.586 4.352 178.586C4.096 178.586 3.968 178.33 3.968 177.818C3.968 177.306 4.096 177.05 4.352 177.05L11.136 177.178C15.0613 177.349 18.176 177.434 20.48 177.434C22.528 177.434 24.96 177.306 27.776 177.05C28.8853 176.965 30.2933 176.88 32 176.794C33.7067 176.709 35.6693 176.666 37.888 176.666C46.592 176.666 53.4613 178.501 58.496 182.17C63.5307 185.754 66.048 191.344 66.048 198.938C66.048 204.229 64.6827 208.709 61.952 212.378C59.2213 216.048 55.68 218.821 51.328 220.698C47.0613 222.576 42.6667 223.514 38.144 223.514C35.84 223.514 33.8347 223.301 32.128 222.874C31.9573 222.874 31.872 222.661 31.872 222.234C31.872 221.978 31.9147 221.722 32 221.466C32.1707 221.21 32.3413 221.125 32.512 221.21C33.792 221.552 35.2427 221.722 36.864 221.722C40.7893 221.722 44.032 219.888 46.592 216.218C49.2373 212.549 50.56 207.344 50.56 200.602C50.56 193.861 49.1093 188.656 46.208 184.986C43.392 181.317 39.2533 179.482 33.792 179.482C31.4027 179.482 29.7813 180.037 28.928 181.146C28.0747 182.256 27.648 184.432 27.648 187.674V246.17ZM107.522 206.362C109.485 206.362 111.362 207.088 113.154 208.538C115.031 209.904 115.97 211.568 115.97 213.53C115.97 215.322 115.415 216.816 114.306 218.01C113.197 219.12 111.746 219.674 109.954 219.674C108.674 219.674 107.607 219.418 106.754 218.906C105.986 218.394 105.175 217.626 104.322 216.602C103.554 215.749 102.871 215.152 102.274 214.81C101.762 214.384 101.122 214.17 100.354 214.17C99.5007 214.17 98.562 214.512 97.538 215.194C96.5993 215.792 95.106 217.114 93.058 219.162V246.682C93.058 250.096 93.8687 252.442 95.49 253.722C97.1113 254.917 100.098 255.514 104.45 255.514C104.791 255.514 104.962 255.77 104.962 256.282C104.962 256.794 104.791 257.05 104.45 257.05C101.463 257.05 99.1167 257.008 97.41 256.922L87.042 256.794L79.49 256.922C78.21 257.008 76.4607 257.05 74.242 257.05C73.986 257.05 73.858 256.794 73.858 256.282C73.858 255.77 73.986 255.514 74.242 255.514C76.8873 255.514 78.6793 254.917 79.618 253.722C80.5567 252.442 81.026 250.096 81.026 246.682V222.618C81.026 219.973 80.6847 218.053 80.002 216.858C79.4047 215.578 78.4233 214.938 77.058 214.938C75.6073 214.938 73.5593 215.536 70.914 216.73H70.658C70.402 216.73 70.1887 216.517 70.018 216.09C69.9327 215.664 69.9753 215.408 70.146 215.322L87.938 206.618C88.45 206.448 88.7487 206.362 88.834 206.362C89.7727 206.362 90.626 207.258 91.394 209.05C92.2473 210.757 92.7593 213.104 92.93 216.09C96.4287 212.506 99.2873 209.989 101.506 208.538C103.81 207.088 105.815 206.362 107.522 206.362ZM146.586 258.714C141.295 258.714 136.645 257.52 132.634 255.13C128.709 252.656 125.679 249.37 123.546 245.274C121.413 241.093 120.346 236.57 120.346 231.706C120.346 226.16 121.754 221.466 124.57 217.626C127.386 213.701 130.97 210.8 135.322 208.922C139.674 206.96 144.154 205.978 148.762 205.978C154.053 205.978 158.661 207.216 162.586 209.69C166.511 212.165 169.498 215.45 171.546 219.546C173.679 223.557 174.746 227.866 174.746 232.474C174.746 237.594 173.466 242.16 170.906 246.17C168.346 250.096 164.89 253.168 160.538 255.386C156.271 257.605 151.621 258.714 146.586 258.714ZM150.426 256.026C153.754 256.026 156.271 254.405 157.978 251.162C159.77 247.834 160.666 243.098 160.666 236.954C160.666 230.981 159.898 225.861 158.362 221.594C156.826 217.328 154.821 214.128 152.346 211.994C149.871 209.776 147.226 208.666 144.41 208.666C137.583 208.666 134.17 214.768 134.17 226.97C134.17 232.688 134.895 237.765 136.346 242.202C137.797 246.554 139.759 249.968 142.234 252.442C144.709 254.832 147.439 256.026 150.426 256.026ZM219.707 164.122C224.486 164.122 228.198 164.805 230.843 166.17C233.488 167.45 234.811 169.285 234.811 171.674C234.811 173.637 234.128 175.173 232.763 176.282C231.483 177.392 229.99 177.946 228.283 177.946C226.235 177.946 224.742 177.477 223.803 176.538C222.864 175.6 222.011 174.234 221.243 172.442C220.475 170.65 219.664 169.328 218.811 168.474C217.958 167.536 216.592 167.066 214.715 167.066C210.79 167.066 207.675 169.797 205.371 175.258C203.152 180.72 202.043 189.253 202.043 200.858V208.666C204.688 208.581 209.382 208.197 216.123 207.514C216.379 207.514 216.592 207.856 216.763 208.538C216.934 209.136 217.019 209.818 217.019 210.586C217.019 211.44 216.848 212.293 216.507 213.146C216.251 213.914 215.995 214.256 215.739 214.17C211.643 213.146 207.078 212.506 202.043 212.25V246.682C202.043 249.328 202.299 251.248 202.811 252.442C203.323 253.637 204.347 254.448 205.883 254.874C207.504 255.301 210.022 255.514 213.435 255.514C213.776 255.514 213.947 255.77 213.947 256.282C213.947 256.794 213.776 257.05 213.435 257.05L204.603 256.922C202.64 256.837 199.739 256.794 195.899 256.794L188.091 256.922C186.726 257.008 184.806 257.05 182.331 257.05C181.99 257.05 181.819 256.794 181.819 256.282C181.819 255.77 181.99 255.514 182.331 255.514C184.55 255.514 186.171 255.301 187.195 254.874C188.304 254.448 189.03 253.637 189.371 252.442C189.798 251.162 190.011 249.242 190.011 246.682V217.882C190.011 215.237 189.456 213.53 188.347 212.762C187.238 211.909 185.062 211.482 181.819 211.482C181.563 211.482 181.435 211.098 181.435 210.33C181.435 209.562 181.563 209.178 181.819 209.178C184.806 209.178 186.854 208.794 187.963 208.026C189.072 207.173 189.67 205.68 189.755 203.546C190.182 189.637 192.827 179.61 197.691 173.466C202.555 167.237 209.894 164.122 219.707 164.122ZM302.531 175.642C306.542 175.642 310.595 175.984 314.691 176.666C318.872 177.264 322.2 178.074 324.675 179.098C325.443 179.354 325.912 179.696 326.083 180.122C326.339 180.464 326.51 181.104 326.595 182.042L328.259 199.834C328.259 200.09 328.046 200.261 327.619 200.346C327.192 200.432 326.894 200.304 326.723 199.962C324.334 192.965 320.92 187.632 316.483 183.962C312.046 180.208 306.712 178.33 300.483 178.33C294.68 178.33 289.475 179.909 284.867 183.066C280.344 186.138 276.76 190.576 274.115 196.378C271.555 202.181 270.275 208.965 270.275 216.73C270.275 224.581 271.598 231.493 274.243 237.466C276.974 243.354 280.686 247.92 285.379 251.162C290.158 254.32 295.619 255.898 301.763 255.898C307.651 255.898 312.6 254.32 316.611 251.162C320.622 247.92 324.419 242.629 328.003 235.29C328.088 235.034 328.344 234.949 328.771 235.034C329.198 235.12 329.411 235.29 329.411 235.546L327.491 251.418C327.32 252.442 327.15 253.125 326.979 253.466C326.808 253.722 326.339 254.021 325.571 254.362C317.72 257.178 309.784 258.586 301.763 258.586C292.632 258.586 284.44 256.88 277.187 253.466C270.019 249.968 264.387 245.104 260.291 238.874C256.195 232.645 254.147 225.562 254.147 217.626C254.147 209.52 256.238 202.309 260.419 195.994C264.686 189.594 270.488 184.602 277.827 181.018C285.251 177.434 293.486 175.642 302.531 175.642ZM339.48 257.05C339.309 257.05 339.224 256.794 339.224 256.282C339.224 255.77 339.309 255.514 339.48 255.514C342.125 255.514 343.917 254.917 344.856 253.722C345.88 252.442 346.392 250.096 346.392 246.682L346.52 181.658C346.52 178.672 346.221 176.538 345.624 175.258C345.112 173.978 344.173 173.338 342.808 173.338C341.699 173.338 340.077 173.808 337.944 174.746H337.816C337.56 174.746 337.304 174.533 337.048 174.106C336.877 173.594 336.877 173.296 337.048 173.21L355.864 164.378L356.376 164.25C356.803 164.25 357.272 164.464 357.784 164.89C358.296 165.232 358.552 165.573 358.552 165.914V246.682C358.552 250.096 359.021 252.442 359.96 253.722C360.899 254.917 362.691 255.514 365.336 255.514C365.677 255.514 365.848 255.77 365.848 256.282C365.848 256.794 365.677 257.05 365.336 257.05C363.203 257.05 361.496 257.008 360.216 256.922L352.408 256.794L344.728 256.922C343.448 257.008 341.699 257.05 339.48 257.05ZM386.53 193.69C384.055 193.69 382.135 193.008 380.77 191.642C379.405 190.277 378.722 188.357 378.722 185.882C378.722 183.664 379.405 181.914 380.77 180.634C382.221 179.269 384.141 178.586 386.53 178.586C388.919 178.586 390.754 179.226 392.034 180.506C393.314 181.786 393.954 183.578 393.954 185.882C393.954 188.357 393.314 190.277 392.034 191.642C390.754 193.008 388.919 193.69 386.53 193.69ZM374.242 257.05C373.986 257.05 373.858 256.794 373.858 256.282C373.858 255.77 373.986 255.514 374.242 255.514C376.887 255.514 378.679 254.917 379.618 253.722C380.557 252.442 381.026 250.096 381.026 246.682V223.77C381.026 220.869 380.727 218.778 380.13 217.498C379.533 216.218 378.551 215.578 377.186 215.578C376.077 215.578 374.498 216.048 372.45 216.986H372.322C371.981 216.986 371.725 216.773 371.554 216.346C371.383 215.834 371.426 215.536 371.682 215.45L391.01 206.49L391.394 206.362C391.821 206.362 392.247 206.576 392.674 207.002C393.101 207.429 393.314 207.813 393.314 208.154V210.97C393.143 214.384 393.058 218.565 393.058 223.514V246.682C393.058 250.096 393.527 252.442 394.466 253.722C395.49 254.917 397.325 255.514 399.97 255.514C400.226 255.514 400.354 255.77 400.354 256.282C400.354 256.794 400.226 257.05 399.97 257.05C397.751 257.05 396.002 257.008 394.722 256.922L387.042 256.794L379.49 256.922C378.21 257.008 376.461 257.05 374.242 257.05ZM468.027 255.514C468.283 255.514 468.411 255.77 468.411 256.282C468.411 256.794 468.283 257.05 468.027 257.05C465.808 257.05 464.059 257.008 462.779 256.922L455.099 256.794L447.675 256.922C446.31 257.008 444.518 257.05 442.299 257.05C442.043 257.05 441.915 256.794 441.915 256.282C441.915 255.77 442.043 255.514 442.299 255.514C444.944 255.514 446.736 254.917 447.675 253.722C448.614 252.442 449.083 250.096 449.083 246.682V228.25C449.083 223.642 448.23 220.229 446.523 218.01C444.902 215.792 442.299 214.682 438.715 214.682C436.667 214.682 434.534 215.109 432.315 215.962C430.182 216.816 428.304 217.968 426.683 219.418V246.682C426.683 250.096 427.152 252.442 428.091 253.722C429.115 254.917 430.95 255.514 433.595 255.514C433.851 255.514 433.979 255.77 433.979 256.282C433.979 256.794 433.851 257.05 433.595 257.05C431.376 257.05 429.627 257.008 428.347 256.922L420.667 256.794L413.115 256.922C411.835 257.008 410.086 257.05 407.867 257.05C407.611 257.05 407.483 256.794 407.483 256.282C407.483 255.77 407.611 255.514 407.867 255.514C410.512 255.514 412.304 254.917 413.243 253.722C414.182 252.442 414.651 250.096 414.651 246.682V222.618C414.651 219.973 414.31 218.053 413.627 216.858C413.03 215.578 412.048 214.938 410.683 214.938C409.232 214.938 407.184 215.536 404.539 216.73H404.283C404.027 216.73 403.814 216.517 403.643 216.09C403.558 215.664 403.6 215.408 403.771 215.322L421.563 206.618C422.075 206.448 422.374 206.362 422.459 206.362C423.398 206.362 424.294 207.301 425.147 209.178C426 210.97 426.512 213.445 426.683 216.602C432.571 209.605 439.056 206.106 446.139 206.106C450.747 206.106 454.374 207.6 457.019 210.586C459.75 213.488 461.115 217.328 461.115 222.106V246.682C461.115 250.096 461.584 252.442 462.523 253.722C463.547 254.917 465.382 255.514 468.027 255.514Z" fill="#D50308"/>
</g>
<path d="M18.92 284.17L18.12 280.45C17.96 279.677 17.64 279.117 17.16 278.77C16.68 278.424 15.9467 278.25 14.96 278.25H13.72C13.72 279.317 13.72 280.424 13.72 281.57C13.7467 282.717 13.76 283.77 13.76 284.73L15.88 285.17V287.05H5.16V285.17L7.28 284.73C7.30667 283.744 7.32 282.704 7.32 281.61C7.32 280.49 7.32 279.504 7.32 278.65V276.13C7.32 275.277 7.32 274.29 7.32 273.17C7.32 272.05 7.30667 270.997 7.28 270.01L5.16 269.57V267.73H15.88V269.57L13.76 270.01C13.76 270.944 13.7467 271.97 13.72 273.09C13.72 274.184 13.72 275.197 13.72 276.13H15.2C16.0267 276.13 16.7067 275.93 17.24 275.53C17.7733 275.13 18.28 274.21 18.76 272.77C19.3733 270.877 20.04 269.53 20.76 268.73C21.5067 267.93 22.52 267.384 23.8 267.09C24.7333 267.277 25.4267 267.637 25.88 268.17C26.36 268.704 26.6 269.33 26.6 270.05C26.6 270.957 26.28 271.664 25.64 272.17C25.0267 272.677 24.2667 272.93 23.36 272.93C22.9333 272.93 22.5333 272.904 22.16 272.85C21.8133 272.797 21.4667 272.717 21.12 272.61C20.96 272.93 20.8 273.29 20.64 273.69C20.2933 274.57 19.9067 275.277 19.48 275.81C19.0533 276.317 18.5333 276.73 17.92 277.05C19.8933 277.317 21.36 277.85 22.32 278.65C23.28 279.45 23.9333 280.557 24.28 281.97L25 284.85L27.2 285.21V287.05C26.72 287.157 26.1733 287.264 25.56 287.37C24.9733 287.477 24.3333 287.53 23.64 287.53C22.3867 287.53 21.3467 287.304 20.52 286.85C19.72 286.37 19.1867 285.477 18.92 284.17ZM31.0775 287.53C30.0375 287.53 29.2242 287.237 28.6375 286.65C28.0775 286.064 27.7975 285.13 27.7975 283.85C28.0642 283.237 28.4508 282.757 28.9575 282.41C29.4908 282.037 30.1308 281.85 30.8775 281.85C31.3308 281.85 31.7308 281.93 32.0775 282.09C32.4242 282.224 32.7442 282.424 33.0375 282.69C33.4375 282.104 33.7708 281.344 34.0375 280.41C34.4375 279.077 34.7442 277.544 34.9575 275.81C35.1975 274.077 35.3708 272.21 35.4775 270.21L32.6375 269.57V267.73H50.2775V269.57L48.1575 270.01C48.1308 270.997 48.1175 272.05 48.1175 273.17C48.1175 274.29 48.1175 275.277 48.1175 276.13V278.65C48.1175 279.504 48.1175 280.49 48.1175 281.61C48.1175 282.704 48.1308 283.744 48.1575 284.73L50.2775 285.17V287.05H39.5575V285.17L41.6775 284.73C41.7042 283.744 41.7175 282.704 41.7175 281.61C41.7175 280.49 41.7175 279.504 41.7175 278.65V276.13C41.7175 275.25 41.7175 274.224 41.7175 273.05C41.7175 271.877 41.7042 270.797 41.6775 269.81H37.7175C37.6375 271.97 37.4642 274.064 37.1975 276.09C36.9575 278.09 36.5708 279.997 36.0375 281.81C35.4508 283.917 34.7308 285.397 33.8775 286.25C33.0242 287.104 32.0908 287.53 31.0775 287.53ZM66.18 269.57V267.73H76.54V269.57L74.42 270.01C74.3933 270.997 74.38 272.05 74.38 273.17C74.38 274.29 74.38 275.277 74.38 276.13V278.65C74.38 279.504 74.38 280.49 74.38 281.61C74.38 282.704 74.3933 283.744 74.42 284.73L76.54 285.17V287.05H66.18V285.17L68.62 284.57V274.25L60.94 283.17V284.61L63.38 285.17V287.05H52.66V285.17L54.78 284.73C54.8067 283.744 54.82 282.704 54.82 281.61C54.82 280.49 54.82 279.504 54.82 278.65V276.13C54.82 275.277 54.82 274.29 54.82 273.17C54.82 272.05 54.8067 270.997 54.78 270.01L52.66 269.57V267.73H63.38V269.57L60.94 270.13V280.09L68.62 271.21V270.17L66.18 269.57ZM91.67 269.57V267.73H102.39V269.57L100.27 270.01C100.243 270.997 100.23 272.05 100.23 273.17C100.23 274.29 100.23 275.277 100.23 276.13V278.65C100.23 279.504 100.23 280.49 100.23 281.61C100.23 282.704 100.243 283.744 100.27 284.73L102.39 285.17V287.05H91.67V285.17L93.79 284.73C93.79 283.77 93.79 282.69 93.79 281.49C93.8167 280.29 93.83 279.077 93.83 277.85H87.47C87.47 279.077 87.47 280.29 87.47 281.49C87.4967 282.69 87.51 283.77 87.51 284.73L89.63 285.17V287.05H78.91V285.17L81.03 284.73C81.0567 283.744 81.07 282.704 81.07 281.61C81.07 280.49 81.07 279.504 81.07 278.65V276.13C81.07 275.277 81.07 274.29 81.07 273.17C81.07 272.05 81.0567 270.997 81.03 270.01L78.91 269.57V267.73H89.63V269.57L87.51 270.01C87.51 270.917 87.4967 271.89 87.47 272.93C87.47 273.944 87.47 274.877 87.47 275.73H93.83C93.83 274.877 93.8167 273.944 93.79 272.93C93.79 271.89 93.79 270.917 93.79 270.01L91.67 269.57ZM118.211 269.57V267.73H128.571V269.57L126.451 270.01C126.425 270.997 126.411 272.05 126.411 273.17C126.411 274.29 126.411 275.277 126.411 276.13V278.65C126.411 279.504 126.411 280.49 126.411 281.61C126.411 282.704 126.425 283.744 126.451 284.73L128.571 285.17V287.05H118.211V285.17L120.651 284.57V274.25L112.971 283.17V284.61L115.411 285.17V287.05H104.691V285.17L106.811 284.73C106.838 283.744 106.851 282.704 106.851 281.61C106.851 280.49 106.851 279.504 106.851 278.65V276.13C106.851 275.277 106.851 274.29 106.851 273.17C106.851 272.05 106.838 270.997 106.811 270.01L104.691 269.57V267.73H115.411V269.57L112.971 270.13V280.09L120.651 271.21V270.17L118.211 269.57ZM143.701 269.57V267.73H154.421V269.57L152.301 270.01C152.275 270.997 152.261 272.05 152.261 273.17C152.261 274.29 152.261 275.277 152.261 276.13V278.65C152.261 279.504 152.261 280.49 152.261 281.61C152.261 282.704 152.275 283.744 152.301 284.73L154.421 285.17V287.05H143.701V285.17L145.821 284.73C145.821 283.77 145.821 282.69 145.821 281.49C145.848 280.29 145.861 279.077 145.861 277.85H139.501C139.501 279.077 139.501 280.29 139.501 281.49C139.528 282.69 139.541 283.77 139.541 284.73L141.661 285.17V287.05H130.941V285.17L133.061 284.73C133.088 283.744 133.101 282.704 133.101 281.61C133.101 280.49 133.101 279.504 133.101 278.65V276.13C133.101 275.277 133.101 274.29 133.101 273.17C133.101 272.05 133.088 270.997 133.061 270.01L130.941 269.57V267.73H141.661V269.57L139.541 270.01C139.541 270.917 139.528 271.89 139.501 272.93C139.501 273.944 139.501 274.877 139.501 275.73H145.861C145.861 274.877 145.848 273.944 145.821 272.93C145.821 271.89 145.821 270.917 145.821 270.01L143.701 269.57ZM156.723 269.57V267.73H172.963L173.083 275.37H170.323L169.323 269.81H165.323C165.296 270.797 165.283 271.877 165.283 273.05C165.283 274.224 165.283 275.25 165.283 276.13V278.65C165.283 279.477 165.283 280.45 165.283 281.57C165.283 282.664 165.296 283.69 165.323 284.65L167.883 285.17V287.05H156.723V285.17L158.843 284.73C158.869 283.744 158.883 282.704 158.883 281.61C158.883 280.49 158.883 279.504 158.883 278.65V276.13C158.883 275.277 158.883 274.29 158.883 273.17C158.883 272.05 158.869 270.997 158.843 270.01L156.723 269.57ZM185.281 287.65C183.201 287.65 181.401 287.224 179.881 286.37C178.361 285.49 177.188 284.277 176.361 282.73C175.534 281.157 175.121 279.344 175.121 277.29C175.121 275.237 175.561 273.45 176.441 271.93C177.348 270.41 178.574 269.224 180.121 268.37C181.668 267.517 183.388 267.09 185.281 267.09C187.174 267.09 188.881 267.504 190.401 268.33C191.948 269.157 193.174 270.344 194.081 271.89C194.988 273.41 195.441 275.21 195.441 277.29C195.441 279.37 195.028 281.184 194.201 282.73C193.374 284.277 192.201 285.49 190.681 286.37C189.161 287.224 187.361 287.65 185.281 287.65ZM185.281 285.57C186.401 285.57 187.241 284.917 187.801 283.61C188.361 282.304 188.641 280.237 188.641 277.41C188.641 274.557 188.361 272.477 187.801 271.17C187.241 269.864 186.401 269.21 185.281 269.21C184.134 269.21 183.281 269.864 182.721 271.17C182.161 272.477 181.881 274.557 181.881 277.41C181.881 280.237 182.161 282.304 182.721 283.61C183.281 284.917 184.134 285.57 185.281 285.57ZM197.738 269.57V267.73H209.698C212.231 267.73 214.018 268.157 215.058 269.01C216.098 269.864 216.618 270.944 216.618 272.25C216.618 273.237 216.298 274.144 215.658 274.97C215.045 275.797 213.845 276.37 212.058 276.69C214.031 276.93 215.445 277.49 216.298 278.37C217.151 279.25 217.578 280.357 217.578 281.69C217.578 282.57 217.311 283.424 216.778 284.25C216.271 285.077 215.365 285.757 214.058 286.29C212.751 286.797 210.911 287.05 208.538 287.05H197.738V285.17L199.858 284.73C199.885 283.744 199.898 282.704 199.898 281.61C199.898 280.49 199.898 279.504 199.898 278.65V276.13C199.898 275.277 199.898 274.29 199.898 273.17C199.898 272.05 199.885 270.997 199.858 270.01L197.738 269.57ZM206.018 278.65C206.018 279.53 206.018 280.557 206.018 281.73C206.018 282.877 206.031 283.944 206.058 284.93H207.658C208.885 284.93 209.818 284.65 210.458 284.09C211.125 283.504 211.458 282.664 211.458 281.57C211.458 279.037 210.178 277.77 207.618 277.77H206.018V278.65ZM207.698 269.81H206.098C206.071 270.69 206.045 271.677 206.018 272.77C206.018 273.837 206.018 274.877 206.018 275.89H207.458C208.578 275.89 209.405 275.61 209.938 275.05C210.498 274.464 210.778 273.65 210.778 272.61C210.778 270.744 209.751 269.81 207.698 269.81ZM235.053 287.61C232.733 287.61 231.266 286.65 230.653 284.73C229.8 285.637 228.973 286.357 228.173 286.89C227.4 287.397 226.32 287.65 224.933 287.65C223.386 287.65 222.12 287.21 221.133 286.33C220.173 285.45 219.693 284.184 219.693 282.53C219.693 281.57 219.906 280.704 220.333 279.93C220.76 279.157 221.533 278.437 222.653 277.77C223.773 277.104 225.36 276.477 227.413 275.89C227.813 275.757 228.28 275.624 228.813 275.49C229.346 275.357 229.893 275.224 230.453 275.09V273.77C230.453 271.984 230.226 270.77 229.773 270.13C229.346 269.49 228.493 269.17 227.213 269.17C227.026 269.17 226.853 269.17 226.693 269.17C226.533 269.17 226.346 269.184 226.133 269.21L225.933 270.97C225.906 272.277 225.6 273.224 225.013 273.81C224.453 274.397 223.786 274.69 223.013 274.69C221.546 274.69 220.653 274.024 220.333 272.69C220.44 271.037 221.28 269.69 222.853 268.65C224.426 267.61 226.653 267.09 229.533 267.09C232.093 267.09 233.92 267.677 235.013 268.85C236.133 270.024 236.693 271.957 236.693 274.65V283.61C236.693 284.384 236.986 284.77 237.573 284.77C237.786 284.77 237.986 284.717 238.173 284.61C238.36 284.477 238.56 284.237 238.773 283.89L239.853 284.61C239.373 285.677 238.746 286.45 237.973 286.93C237.226 287.384 236.253 287.61 235.053 287.61ZM225.613 281.49C225.613 282.477 225.84 283.21 226.293 283.69C226.773 284.17 227.346 284.41 228.013 284.41C228.306 284.41 228.613 284.344 228.933 284.21C229.253 284.077 229.76 283.77 230.453 283.29V276.81C230.106 276.917 229.76 277.037 229.413 277.17C229.093 277.277 228.813 277.384 228.573 277.49C227.666 277.864 226.946 278.397 226.413 279.09C225.88 279.757 225.613 280.557 225.613 281.49ZM252.223 277.05H253.183V276.13C253.183 275.224 253.17 274.184 253.143 273.01C253.143 271.81 253.13 270.717 253.103 269.73H252.103C250.903 269.73 249.956 269.97 249.263 270.45C248.57 270.93 248.223 271.85 248.223 273.21C248.223 274.677 248.543 275.69 249.183 276.25C249.85 276.784 250.863 277.05 252.223 277.05ZM239.943 287.05V285.17L242.583 284.77L243.383 282.33C243.756 281.157 244.343 280.21 245.143 279.49C245.943 278.77 247.036 278.264 248.423 277.97C246.343 277.677 244.796 277.104 243.783 276.25C242.77 275.397 242.263 274.317 242.263 273.01C242.263 271.41 242.916 270.13 244.223 269.17C245.556 268.21 247.823 267.73 251.023 267.73H261.423V269.57L259.303 270.01C259.276 270.997 259.263 272.05 259.263 273.17C259.263 274.29 259.263 275.277 259.263 276.13V278.65C259.263 279.504 259.263 280.49 259.263 281.61C259.263 282.704 259.276 283.744 259.303 284.73L261.423 285.17V287.05H250.823V285.17L253.143 284.69C253.143 283.784 253.143 282.81 253.143 281.77C253.17 280.73 253.183 279.797 253.183 278.97H252.103C251.25 278.97 250.663 279.21 250.343 279.69C250.023 280.17 249.703 280.824 249.383 281.65L248.183 284.69C247.916 285.517 247.61 286.13 247.263 286.53C246.943 286.93 246.516 287.197 245.983 287.33C245.45 287.464 244.703 287.53 243.743 287.53C243.156 287.53 242.57 287.49 241.983 287.41C241.423 287.33 240.743 287.21 239.943 287.05ZM286.108 284.17L285.308 280.45C285.148 279.677 284.828 279.117 284.348 278.77C283.868 278.424 283.134 278.25 282.148 278.25H280.908C280.908 279.317 280.908 280.424 280.908 281.57C280.934 282.717 280.948 283.77 280.948 284.73L283.068 285.17V287.05H272.348V285.17L274.468 284.73C274.494 283.744 274.508 282.704 274.508 281.61C274.508 280.49 274.508 279.504 274.508 278.65V276.13C274.508 275.277 274.508 274.29 274.508 273.17C274.508 272.05 274.494 270.997 274.468 270.01L272.348 269.57V267.73H283.068V269.57L280.948 270.01C280.948 270.944 280.934 271.97 280.908 273.09C280.908 274.184 280.908 275.197 280.908 276.13H282.388C283.214 276.13 283.894 275.93 284.428 275.53C284.961 275.13 285.468 274.21 285.948 272.77C286.561 270.877 287.228 269.53 287.948 268.73C288.694 267.93 289.708 267.384 290.988 267.09C291.921 267.277 292.614 267.637 293.068 268.17C293.548 268.704 293.787 269.33 293.787 270.05C293.787 270.957 293.468 271.664 292.828 272.17C292.214 272.677 291.454 272.93 290.548 272.93C290.121 272.93 289.721 272.904 289.348 272.85C289.001 272.797 288.654 272.717 288.308 272.61C288.148 272.93 287.988 273.29 287.828 273.69C287.481 274.57 287.094 275.277 286.668 275.81C286.241 276.317 285.721 276.73 285.108 277.05C287.081 277.317 288.548 277.85 289.508 278.65C290.468 279.45 291.121 280.557 291.468 281.97L292.188 284.85L294.388 285.21V287.05C293.908 287.157 293.361 287.264 292.748 287.37C292.161 287.477 291.521 287.53 290.828 287.53C289.574 287.53 288.534 287.304 287.708 286.85C286.908 286.37 286.374 285.477 286.108 284.17ZM305.437 287.65C303.357 287.65 301.557 287.224 300.037 286.37C298.517 285.49 297.344 284.277 296.517 282.73C295.691 281.157 295.277 279.344 295.277 277.29C295.277 275.237 295.717 273.45 296.597 271.93C297.504 270.41 298.731 269.224 300.277 268.37C301.824 267.517 303.544 267.09 305.437 267.09C307.331 267.09 309.037 267.504 310.557 268.33C312.104 269.157 313.331 270.344 314.237 271.89C315.144 273.41 315.597 275.21 315.597 277.29C315.597 279.37 315.184 281.184 314.357 282.73C313.531 284.277 312.357 285.49 310.837 286.37C309.317 287.224 307.517 287.65 305.437 287.65ZM305.437 285.57C306.557 285.57 307.397 284.917 307.957 283.61C308.517 282.304 308.797 280.237 308.797 277.41C308.797 274.557 308.517 272.477 307.957 271.17C307.397 269.864 306.557 269.21 305.437 269.21C304.291 269.21 303.437 269.864 302.877 271.17C302.317 272.477 302.037 274.557 302.037 277.41C302.037 280.237 302.317 282.304 302.877 283.61C303.437 284.917 304.291 285.57 305.437 285.57ZM317.894 287.05V285.17L320.334 284.69V270.09L318.054 269.57V267.73H327.174L331.694 278.65L336.014 267.73H345.174V269.57L343.014 270.01C342.988 270.997 342.974 272.05 342.974 273.17C342.974 274.29 342.974 275.277 342.974 276.13V278.65C342.974 279.504 342.974 280.49 342.974 281.61C342.974 282.704 342.988 283.744 343.014 284.73L345.174 285.17V287.05H334.454V285.17L336.894 284.65V278.61L337.254 270.25L331.174 285.61H328.614L322.174 270.25L322.614 278.61V284.69L324.814 285.17V287.05H317.894ZM347.504 287.05V285.17L349.624 284.73C349.65 283.744 349.664 282.704 349.664 281.61C349.664 280.49 349.664 279.504 349.664 278.65V276.13C349.664 275.277 349.664 274.29 349.664 273.17C349.664 272.05 349.65 270.997 349.624 270.01L347.504 269.57V267.73H370.584V269.57L368.424 270.01C368.397 270.997 368.384 272.05 368.384 273.17C368.384 274.29 368.384 275.277 368.384 276.13V278.65C368.384 279.504 368.384 280.49 368.384 281.61C368.384 282.704 368.397 283.744 368.424 284.73L370.584 285.17V287.05H359.864V285.17L361.984 284.73C362.01 283.744 362.024 282.704 362.024 281.61C362.024 280.49 362.024 279.504 362.024 278.65V276.13C362.024 275.25 362.024 274.224 362.024 273.05C362.024 271.877 362.01 270.797 361.984 269.81H356.104C356.077 270.797 356.064 271.877 356.064 273.05C356.064 274.224 356.064 275.25 356.064 276.13V278.65C356.064 279.504 356.064 280.49 356.064 281.61C356.064 282.704 356.077 283.744 356.104 284.73L358.224 285.17V287.05H347.504ZM388.334 287.61C386.014 287.61 384.548 286.65 383.934 284.73C383.081 285.637 382.254 286.357 381.454 286.89C380.681 287.397 379.601 287.65 378.214 287.65C376.668 287.65 375.401 287.21 374.414 286.33C373.454 285.45 372.974 284.184 372.974 282.53C372.974 281.57 373.188 280.704 373.614 279.93C374.041 279.157 374.814 278.437 375.934 277.77C377.054 277.104 378.641 276.477 380.694 275.89C381.094 275.757 381.561 275.624 382.094 275.49C382.628 275.357 383.174 275.224 383.734 275.09V273.77C383.734 271.984 383.508 270.77 383.054 270.13C382.628 269.49 381.774 269.17 380.494 269.17C380.308 269.17 380.134 269.17 379.974 269.17C379.814 269.17 379.628 269.184 379.414 269.21L379.214 270.97C379.188 272.277 378.881 273.224 378.294 273.81C377.734 274.397 377.068 274.69 376.294 274.69C374.828 274.69 373.934 274.024 373.614 272.69C373.721 271.037 374.561 269.69 376.134 268.65C377.708 267.61 379.934 267.09 382.814 267.09C385.374 267.09 387.201 267.677 388.294 268.85C389.414 270.024 389.974 271.957 389.974 274.65V283.61C389.974 284.384 390.268 284.77 390.854 284.77C391.068 284.77 391.268 284.717 391.454 284.61C391.641 284.477 391.841 284.237 392.054 283.89L393.134 284.61C392.654 285.677 392.028 286.45 391.254 286.93C390.508 287.384 389.534 287.61 388.334 287.61ZM378.894 281.49C378.894 282.477 379.121 283.21 379.574 283.69C380.054 284.17 380.628 284.41 381.294 284.41C381.588 284.41 381.894 284.344 382.214 284.21C382.534 284.077 383.041 283.77 383.734 283.29V276.81C383.388 276.917 383.041 277.037 382.694 277.17C382.374 277.277 382.094 277.384 381.854 277.49C380.948 277.864 380.228 278.397 379.694 279.09C379.161 279.757 378.894 280.557 378.894 281.49ZM406.709 269.57V267.73H417.429V269.57L415.309 270.01C415.282 270.997 415.269 272.05 415.269 273.17C415.269 274.29 415.269 275.277 415.269 276.13V278.65C415.269 279.504 415.269 280.49 415.269 281.61C415.269 282.704 415.282 283.744 415.309 284.73L417.429 285.17V287.05H406.709V285.17L408.829 284.73C408.829 283.77 408.829 282.69 408.829 281.49C408.856 280.29 408.869 279.077 408.869 277.85H402.509C402.509 279.077 402.509 280.29 402.509 281.49C402.536 282.69 402.549 283.77 402.549 284.73L404.669 285.17V287.05H393.949V285.17L396.069 284.73C396.096 283.744 396.109 282.704 396.109 281.61C396.109 280.49 396.109 279.504 396.109 278.65V276.13C396.109 275.277 396.109 274.29 396.109 273.17C396.109 272.05 396.096 270.997 396.069 270.01L393.949 269.57V267.73H404.669V269.57L402.549 270.01C402.549 270.917 402.536 271.89 402.509 272.93C402.509 273.944 402.509 274.877 402.509 275.73H408.869C408.869 274.877 408.856 273.944 408.829 272.93C408.829 271.89 408.829 270.917 408.829 270.01L406.709 269.57ZM433.25 269.57V267.73H443.61V269.57L441.49 270.01C441.464 270.997 441.45 272.05 441.45 273.17C441.45 274.29 441.45 275.277 441.45 276.13V278.65C441.45 279.504 441.45 280.49 441.45 281.61C441.45 282.704 441.464 283.744 441.49 284.73L443.61 285.17V287.05H433.25V285.17L435.69 284.57V274.25L428.01 283.17V284.61L430.45 285.17V287.05H419.73V285.17L421.85 284.73C421.877 283.744 421.89 282.704 421.89 281.61C421.89 280.49 421.89 279.504 421.89 278.65V276.13C421.89 275.277 421.89 274.29 421.89 273.17C421.89 272.05 421.877 270.997 421.85 270.01L419.73 269.57V267.73H430.45V269.57L428.01 270.13V280.09L435.69 271.21V270.17L433.25 269.57ZM457.34 277.05H458.3V276.13C458.3 275.224 458.287 274.184 458.26 273.01C458.26 271.81 458.247 270.717 458.22 269.73H457.22C456.02 269.73 455.074 269.97 454.38 270.45C453.687 270.93 453.34 271.85 453.34 273.21C453.34 274.677 453.66 275.69 454.3 276.25C454.967 276.784 455.98 277.05 457.34 277.05ZM445.06 287.05V285.17L447.7 284.77L448.5 282.33C448.874 281.157 449.46 280.21 450.26 279.49C451.06 278.77 452.154 278.264 453.54 277.97C451.46 277.677 449.914 277.104 448.9 276.25C447.887 275.397 447.38 274.317 447.38 273.01C447.38 271.41 448.034 270.13 449.34 269.17C450.674 268.21 452.94 267.73 456.14 267.73H466.54V269.57L464.42 270.01C464.394 270.997 464.38 272.05 464.38 273.17C464.38 274.29 464.38 275.277 464.38 276.13V278.65C464.38 279.504 464.38 280.49 464.38 281.61C464.38 282.704 464.394 283.744 464.42 284.73L466.54 285.17V287.05H455.94V285.17L458.26 284.69C458.26 283.784 458.26 282.81 458.26 281.77C458.287 280.73 458.3 279.797 458.3 278.97H457.22C456.367 278.97 455.78 279.21 455.46 279.69C455.14 280.17 454.82 280.824 454.5 281.65L453.3 284.69C453.034 285.517 452.727 286.13 452.38 286.53C452.06 286.93 451.634 287.197 451.1 287.33C450.567 287.464 449.82 287.53 448.86 287.53C448.274 287.53 447.687 287.49 447.1 287.41C446.54 287.33 445.86 287.21 445.06 287.05Z" fill="#DE9393"/>
<circle cx="261.839" cy="86.5828" r="9.16131" fill="#03A5E6"/>
<circle cx="265.699" cy="81.5701" r="2.13188" fill="white"/>
<circle cx="234.654" cy="71.6231" r="9.68589" fill="#03A5E6"/>
<circle cx="238.736" cy="66.3234" r="2.25395" fill="white"/>
<circle cx="249.01" cy="95.7583" r="11.817" fill="#03A5E6"/>
<circle cx="253.989" cy="89.2923" r="2.74986" fill="white"/>
<circle cx="260.602" cy="27.484" r="7.10985" fill="#03A5E6"/>
<circle cx="263.598" cy="23.5936" r="1.65449" fill="white"/>
<circle cx="254.897" cy="7.10985" r="7.10985" fill="#03A5E6"/>
<circle cx="257.893" cy="3.21956" r="1.65449" fill="white"/>
<circle cx="230.631" cy="129.518" r="17.9807" fill="#03A5E6"/>
<circle cx="238.208" cy="119.68" r="4.18419" fill="white"/>
<circle cx="223.882" cy="176.763" r="16.3836" fill="#03A5E6"/>
<circle cx="230.786" cy="167.798" r="3.81253" fill="white"/>
<circle cx="243.923" cy="156.824" r="8.91308" fill="#03A5E6"/>
<circle cx="247.679" cy="151.947" r="2.07411" fill="white"/>
<circle cx="207.55" cy="134.361" r="13.5499" fill="#03A5E6"/>
<circle cx="213.26" cy="126.947" r="3.15313" fill="white"/>
<defs>
<filter id="filter0_i_11746_74" x="3.96802" y="164.122" width="464.443" height="96.592" filterUnits="userSpaceOnUse" color-interpolation-filters="sRGB">
<feFlood flood-opacity="0" result="BackgroundImageFix"/>
<feBlend mode="normal" in="SourceGraphic" in2="BackgroundImageFix" result="shape"/>
<feColorMatrix in="SourceAlpha" type="matrix" values="0 0 0 0 0 0 0 0 0 0 0 0 0 0 0 0 0 0 127 0" result="hardAlpha"/>
<feOffset dy="2"/>
<feGaussianBlur stdDeviation="2"/>
<feComposite in2="hardAlpha" operator="arithmetic" k2="-1" k3="1"/>
<feColorMatrix type="matrix" values="0 0 0 0 0 0 0 0 0 0 0 0 0 0 0 0 0 0 0.25 0"/>
<feBlend mode="normal" in2="shape" result="effect1_innerShadow_11746_74"/>
</filter>
</defs>
</svg>
